<?xml version="1.0" encoding="UTF-8"?>
<!DOCTYPE svg PUBLIC "-//W3C//DTD SVG 1.1//EN" "http://www.w3.org/Graphics/SVG/1.1/DTD/svg11.dtd">
<!-- Creator: CorelDRAW 2020 (64-Bit) -->
<svg xmlns="http://www.w3.org/2000/svg" xml:space="preserve" width="215.9mm" height="279.4mm" version="1.1" style="shape-rendering:geometricPrecision; text-rendering:geometricPrecision; image-rendering:optimizeQuality; fill-rule:evenodd; clip-rule:evenodd"
viewBox="0 0 21590 27940"
 xmlns:xlink="http://www.w3.org/1999/xlink"
 xmlns:xodm="http://www.corel.com/coreldraw/odm/2003">
 <defs>
  <style type="text/css">
   <![CDATA[
    .fil0 {fill:black;fill-rule:nonzero}
   ]]>
  </style>
 </defs>
 <g id="Capa_x0020_1">
  <metadata id="CorelCorpID_0Corel-Layer"/>
  <path class="fil0" d="M17541.88 4854.52l-13493.76 0c-1364.67,0 -2473.85,1109.19 -2473.85,2473.85l0 7885.75c0,1364.67 1109.19,2473.85 2473.85,2473.85l13493.76 0.01c1364.67,0 2473.85,-1109.19 2473.85,-2473.85l0 -7885.75c0,-1364.67 -1109.19,-2473.85 -2473.85,-2473.85l0 -0.01zm1124.47 10359.6c0,619.81 -504.67,1124.48 -1124.48,1124.48l-13493.75 0c-619.81,0 -1124.48,-504.67 -1124.48,-1124.48l0 -5583.71 15742.71 0 0 5583.71zm0 -7832.67l-15742.7 0 0 -52.18c0,-619.81 504.67,-1124.48 1124.48,-1124.48l13493.75 0.01c619.81,0 1124.48,504.67 1124.48,1124.48l0 52.18 -0.01 -0.01z"/>
  <path class="fil0" d="M4675.13 12558.55l1353.88 0c372.57,0 674.7,302.13 674.7,674.69l-0.01 1354.77c0.01,372.55 -302.12,674.68 -674.68,674.68l-1353.89 0.01c-372.55,-0.01 -674.68,-302.14 -674.68,-674.7l0 -1354.76c0,-372.56 302.13,-674.69 674.69,-674.69z"/>
 </g>
</svg>
